<svg xmlns="http://www.w3.org/2000/svg" width="1160" height="780" viewBox="0 0 1160 780">
<defs><marker id="arrow" viewBox="0 0 10 10" refX="9" refY="5" markerWidth="7" markerHeight="7" orient="auto-start-reverse"><path d="M 0 0 L 10 5 L 0 10 z" fill="#374151"/></marker><marker id="arrowOpen" viewBox="0 0 10 10" refX="9" refY="5" markerWidth="8" markerHeight="8" orient="auto-start-reverse"><path d="M 0 0 L 10 5 L 0 10" fill="none" stroke="#374151" stroke-width="1.5"/></marker></defs>
<rect width="100%" height="100%" fill="#e5e7eb"/>


<rect x="20" y="20" width="1120" height="740" rx="0" fill="#ffffff" stroke="#9ca3af" stroke-width="1.5"/><text x="580.0" y="394.5" font-family="Segoe UI,Arial,sans-serif" font-size="12" fill="#111827" font-weight="normal" text-anchor="middle"></text><rect x="20" y="20" width="1120" height="46" rx="0" fill="#1f2937" stroke="#1f2937" stroke-width="1.5"/><text x="580.0" y="47.5" font-family="Segoe UI,Arial,sans-serif" font-size="12" fill="#111827" font-weight="normal" text-anchor="middle"></text><ellipse cx="41.0" cy="40.0" rx="7.0" ry="7.0" fill="#ef4444" stroke="#ef4444" stroke-width="1.5"/><text x="41.0" y="44.5" font-family="Segoe UI,Arial,sans-serif" font-size="12" fill="#111827" font-weight="normal" text-anchor="middle"></text><ellipse cx="61.0" cy="40.0" rx="7.0" ry="7.0" fill="#f59e0b" stroke="#f59e0b" stroke-width="1.5"/><text x="61.0" y="44.5" font-family="Segoe UI,Arial,sans-serif" font-size="12" fill="#111827" font-weight="normal" text-anchor="middle"></text><ellipse cx="81.0" cy="40.0" rx="7.0" ry="7.0" fill="#10b981" stroke="#10b981" stroke-width="1.5"/><text x="81.0" y="44.5" font-family="Segoe UI,Arial,sans-serif" font-size="12" fill="#111827" font-weight="normal" text-anchor="middle"></text><rect x="120" y="26" width="860" height="34" rx="0" fill="#1f2937" stroke="#1f2937" stroke-width="1.5"/><text x="550.0" y="47.8" font-family="Segoe UI,Arial,sans-serif" font-size="13" fill="#ffffff" font-weight="bold" text-anchor="middle">Parqueadero Neiva - Inicio de sesion</text><rect x="400" y="160" width="360" height="420" rx="8" fill="#ffffff" stroke="#e5e7eb" stroke-width="1.5"/><text x="580.0" y="374.5" font-family="Segoe UI,Arial,sans-serif" font-size="12" fill="#111827" font-weight="normal" text-anchor="middle"></text><ellipse cx="580.0" cy="225.0" rx="35.0" ry="35.0" fill="#2563eb" stroke="#2563eb" stroke-width="1.5"/><text x="580.0" y="229.2" font-family="Segoe UI,Arial,sans-serif" font-size="11" fill="#ffffff" font-weight="normal" text-anchor="middle">logo</text><rect x="430" y="280" width="300" height="30" rx="0" fill="#ffffff" stroke="#ffffff" stroke-width="1.5"/><text x="580.0" y="300.7" font-family="Segoe UI,Arial,sans-serif" font-size="16" fill="#111827" font-weight="bold" text-anchor="middle">Parqueadero Neiva</text><rect x="430" y="308" width="300" height="20" rx="0" fill="#ffffff" stroke="#ffffff" stroke-width="1.5"/><text x="580.0" y="322.2" font-family="Segoe UI,Arial,sans-serif" font-size="11" fill="#6b7280" font-weight="normal" text-anchor="middle">Sistema de Gestion</text><rect x="430" y="350" width="300" height="18" rx="0" fill="#ffffff" stroke="#ffffff" stroke-width="1.5"/><text x="438" y="363.2" font-family="Segoe UI,Arial,sans-serif" font-size="11" fill="#374151" font-weight="normal" text-anchor="start">Usuario</text><rect x="430" y="368" width="300" height="34" rx="8" fill="#ffffff" stroke="#9ca3af" stroke-width="1.5"/><text x="580.0" y="389.2" font-family="Segoe UI,Arial,sans-serif" font-size="11" fill="#9ca3af" font-weight="normal" text-anchor="middle">Usuario</text><rect x="430" y="412" width="300" height="18" rx="0" fill="#ffffff" stroke="#ffffff" stroke-width="1.5"/><text x="438" y="425.2" font-family="Segoe UI,Arial,sans-serif" font-size="11" fill="#374151" font-weight="normal" text-anchor="start">Contrasena</text><rect x="430" y="430" width="300" height="34" rx="8" fill="#ffffff" stroke="#9ca3af" stroke-width="1.5"/><text x="580.0" y="451.2" font-family="Segoe UI,Arial,sans-serif" font-size="11" fill="#9ca3af" font-weight="normal" text-anchor="middle">********</text><rect x="430" y="490" width="300" height="40" rx="8" fill="#2563eb" stroke="#2563eb" stroke-width="1.5"/><text x="580.0" y="514.5" font-family="Segoe UI,Arial,sans-serif" font-size="12" fill="#ffffff" font-weight="bold" text-anchor="middle">Ingresar</text><rect x="430" y="545" width="300" height="20" rx="0" fill="#ffffff" stroke="#ffffff" stroke-width="1.5"/><text x="580.0" y="558.9" font-family="Segoe UI,Arial,sans-serif" font-size="10" fill="#9ca3af" font-weight="normal" text-anchor="middle">Neiva, Colombia - Ley 1801/2016</text>
</svg>
