<svg xmlns="http://www.w3.org/2000/svg" width="1160" height="780" viewBox="0 0 1160 780">
<defs><marker id="arrow" viewBox="0 0 10 10" refX="9" refY="5" markerWidth="7" markerHeight="7" orient="auto-start-reverse"><path d="M 0 0 L 10 5 L 0 10 z" fill="#374151"/></marker><marker id="arrowOpen" viewBox="0 0 10 10" refX="9" refY="5" markerWidth="8" markerHeight="8" orient="auto-start-reverse"><path d="M 0 0 L 10 5 L 0 10" fill="none" stroke="#374151" stroke-width="1.5"/></marker></defs>
<rect width="100%" height="100%" fill="#e5e7eb"/>


<rect x="20" y="20" width="1120" height="740" rx="0" fill="#ffffff" stroke="#9ca3af" stroke-width="1.5"/><text x="580.0" y="394.5" font-family="Segoe UI,Arial,sans-serif" font-size="12" fill="#111827" font-weight="normal" text-anchor="middle"></text><rect x="20" y="20" width="1120" height="46" rx="0" fill="#1f2937" stroke="#1f2937" stroke-width="1.5"/><text x="580.0" y="47.5" font-family="Segoe UI,Arial,sans-serif" font-size="12" fill="#111827" font-weight="normal" text-anchor="middle"></text><ellipse cx="41.0" cy="40.0" rx="7.0" ry="7.0" fill="#ef4444" stroke="#ef4444" stroke-width="1.5"/><text x="41.0" y="44.5" font-family="Segoe UI,Arial,sans-serif" font-size="12" fill="#111827" font-weight="normal" text-anchor="middle"></text><ellipse cx="61.0" cy="40.0" rx="7.0" ry="7.0" fill="#f59e0b" stroke="#f59e0b" stroke-width="1.5"/><text x="61.0" y="44.5" font-family="Segoe UI,Arial,sans-serif" font-size="12" fill="#111827" font-weight="normal" text-anchor="middle"></text><ellipse cx="81.0" cy="40.0" rx="7.0" ry="7.0" fill="#10b981" stroke="#10b981" stroke-width="1.5"/><text x="81.0" y="44.5" font-family="Segoe UI,Arial,sans-serif" font-size="12" fill="#111827" font-weight="normal" text-anchor="middle"></text><rect x="120" y="26" width="860" height="34" rx="0" fill="#1f2937" stroke="#1f2937" stroke-width="1.5"/><text x="550.0" y="47.8" font-family="Segoe UI,Arial,sans-serif" font-size="13" fill="#ffffff" font-weight="bold" text-anchor="middle">Operador - Registrar entrada</text><rect x="20" y="66" width="210" height="694" rx="0" fill="#111827" stroke="#111827" stroke-width="1.5"/><text x="125.0" y="417.5" font-family="Segoe UI,Arial,sans-serif" font-size="12" fill="#111827" font-weight="normal" text-anchor="middle"></text><rect x="36" y="84" width="178" height="40" rx="0" fill="#111827" stroke="#111827" stroke-width="1.5"/><text x="44" y="101.0" font-family="Segoe UI,Arial,sans-serif" font-size="12" fill="#ffffff" font-weight="bold" text-anchor="start">Parqueadero</text><text x="44" y="116.0" font-family="Segoe UI,Arial,sans-serif" font-size="12" fill="#ffffff" font-weight="bold" text-anchor="start">Neiva, Colombia</text><rect x="32" y="150" width="186" height="34" rx="8" fill="#2563eb" stroke="#2563eb" stroke-width="1.5"/><text x="40" y="171.2" font-family="Segoe UI,Arial,sans-serif" font-size="11" fill="#ffffff" font-weight="normal" text-anchor="start">Entrada</text><rect x="32" y="194" width="186" height="34" rx="8" fill="#111827" stroke="#111827" stroke-width="1.5"/><text x="40" y="215.2" font-family="Segoe UI,Arial,sans-serif" font-size="11" fill="#cbd5e1" font-weight="normal" text-anchor="start">Salida</text><rect x="32" y="238" width="186" height="34" rx="8" fill="#111827" stroke="#111827" stroke-width="1.5"/><text x="40" y="259.2" font-family="Segoe UI,Arial,sans-serif" font-size="11" fill="#cbd5e1" font-weight="normal" text-anchor="start">Activos</text><rect x="230" y="66" width="910" height="50" rx="0" fill="#ffffff" stroke="#e5e7eb" stroke-width="1.5"/><text x="238" y="95.5" font-family="Segoe UI,Arial,sans-serif" font-size="12" fill="#111827" font-weight="normal" text-anchor="start">Sistema de gestion de parqueadero</text><rect x="950" y="76" width="170" height="30" rx="8" fill="#e0e7ff" stroke="#c7d2fe" stroke-width="1.5"/><text x="1035.0" y="95.2" font-family="Segoe UI,Arial,sans-serif" font-size="11" fill="#111827" font-weight="normal" text-anchor="middle">Operador</text><rect x="250" y="136" width="880" height="614" rx="0" fill="#f9fafb" stroke="#e5e7eb" stroke-width="1.5"/><text x="690.0" y="447.5" font-family="Segoe UI,Arial,sans-serif" font-size="12" fill="#111827" font-weight="normal" text-anchor="middle"></text><rect x="270" y="155" width="700" height="34" rx="0" fill="#f9fafb" stroke="#f9fafb" stroke-width="1.5"/><text x="278" y="177.4" font-family="Segoe UI,Arial,sans-serif" font-size="15" fill="#111827" font-weight="bold" text-anchor="start">Registrar Entrada</text><rect x="270" y="187" width="700" height="24" rx="0" fill="#f9fafb" stroke="#f9fafb" stroke-width="1.5"/><text x="278" y="203.2" font-family="Segoe UI,Arial,sans-serif" font-size="11" fill="#6b7280" font-weight="normal" text-anchor="start">Ingrese los datos del vehiculo que ingresa</text><rect x="270" y="220" width="500" height="210" rx="8" fill="#ffffff" stroke="#e5e7eb" stroke-width="1.5"/><text x="520.0" y="329.5" font-family="Segoe UI,Arial,sans-serif" font-size="12" fill="#111827" font-weight="normal" text-anchor="middle"></text><rect x="284" y="230" width="472" height="22" rx="0" fill="#ffffff" stroke="#ffffff" stroke-width="1.5"/><text x="292" y="245.5" font-family="Segoe UI,Arial,sans-serif" font-size="12" fill="#111827" font-weight="bold" text-anchor="start">Datos del vehiculo</text><rect x="290" y="260" width="200" height="18" rx="0" fill="#ffffff" stroke="#ffffff" stroke-width="1.5"/><text x="298" y="273.2" font-family="Segoe UI,Arial,sans-serif" font-size="11" fill="#374151" font-weight="normal" text-anchor="start">Placa</text><rect x="290" y="278" width="200" height="34" rx="8" fill="#ffffff" stroke="#9ca3af" stroke-width="1.5"/><text x="390.0" y="299.2" font-family="Segoe UI,Arial,sans-serif" font-size="11" fill="#9ca3af" font-weight="normal" text-anchor="middle">ABC-123</text><rect x="510" y="260" width="240" height="18" rx="0" fill="#ffffff" stroke="#ffffff" stroke-width="1.5"/><text x="518" y="273.2" font-family="Segoe UI,Arial,sans-serif" font-size="11" fill="#374151" font-weight="normal" text-anchor="start">Categoria</text><rect x="510" y="278" width="240" height="34" rx="8" fill="#ffffff" stroke="#9ca3af" stroke-width="1.5"/><text x="630.0" y="299.2" font-family="Segoe UI,Arial,sans-serif" font-size="11" fill="#9ca3af" font-weight="normal" text-anchor="middle">Liviano (A)</text><rect x="290" y="340" width="220" height="30" rx="0" fill="#ffffff" stroke="#ffffff" stroke-width="1.5"/><text x="298" y="359.2" font-family="Segoe UI,Arial,sans-serif" font-size="11" fill="#111827" font-weight="normal" text-anchor="start">Placa internacional</text><rect x="290" y="366" width="16" height="16" rx="0" fill="#ffffff" stroke="#9ca3af" stroke-width="1.5"/><text x="298.0" y="378.5" font-family="Segoe UI,Arial,sans-serif" font-size="12" fill="#111827" font-weight="normal" text-anchor="middle"></text><rect x="270" y="450" width="500" height="210" rx="8" fill="#ffffff" stroke="#e5e7eb" stroke-width="1.5"/><text x="520.0" y="559.5" font-family="Segoe UI,Arial,sans-serif" font-size="12" fill="#111827" font-weight="normal" text-anchor="middle"></text><rect x="284" y="460" width="472" height="22" rx="0" fill="#ffffff" stroke="#ffffff" stroke-width="1.5"/><text x="292" y="475.5" font-family="Segoe UI,Arial,sans-serif" font-size="12" fill="#111827" font-weight="bold" text-anchor="start">Datos del propietario/conductor</text><rect x="290" y="490" width="460" height="18" rx="0" fill="#ffffff" stroke="#ffffff" stroke-width="1.5"/><text x="298" y="503.2" font-family="Segoe UI,Arial,sans-serif" font-size="11" fill="#374151" font-weight="normal" text-anchor="start">Nombre completo</text><rect x="290" y="508" width="460" height="34" rx="8" fill="#ffffff" stroke="#9ca3af" stroke-width="1.5"/><text x="520.0" y="529.2" font-family="Segoe UI,Arial,sans-serif" font-size="11" fill="#9ca3af" font-weight="normal" text-anchor="middle">Nombre del propietario</text><rect x="290" y="552" width="460" height="18" rx="0" fill="#ffffff" stroke="#ffffff" stroke-width="1.5"/><text x="298" y="565.2" font-family="Segoe UI,Arial,sans-serif" font-size="11" fill="#374151" font-weight="normal" text-anchor="start">Correo electronico (opcional)</text><rect x="290" y="570" width="460" height="34" rx="8" fill="#ffffff" stroke="#9ca3af" stroke-width="1.5"/><text x="520.0" y="591.2" font-family="Segoe UI,Arial,sans-serif" font-size="11" fill="#9ca3af" font-weight="normal" text-anchor="middle">cliente@correo.com</text><rect x="270" y="690" width="500" height="40" rx="8" fill="#2563eb" stroke="#2563eb" stroke-width="1.5"/><text x="520.0" y="714.5" font-family="Segoe UI,Arial,sans-serif" font-size="12" fill="#ffffff" font-weight="bold" text-anchor="middle">Registrar entrada</text><rect x="800" y="260" width="330" height="330" rx="8" fill="#ffffff" stroke="#e5e7eb" stroke-width="1.5"/><text x="965.0" y="429.5" font-family="Segoe UI,Arial,sans-serif" font-size="12" fill="#111827" font-weight="normal" text-anchor="middle"></text><rect x="814" y="270" width="302" height="22" rx="0" fill="#ffffff" stroke="#ffffff" stroke-width="1.5"/><text x="822" y="285.5" font-family="Segoe UI,Arial,sans-serif" font-size="12" fill="#111827" font-weight="bold" text-anchor="start">Ticket de entrada</text><rect x="816" y="305" width="298" height="30" rx="0" fill="#ffffff" stroke="#f3f4f6" stroke-width="1.5"/><text x="824" y="324.2" font-family="Segoe UI,Arial,sans-serif" font-size="11" fill="#111827" font-weight="normal" text-anchor="start">Transaccion: TXN-20260927-00001</text><rect x="816" y="343" width="298" height="30" rx="0" fill="#ffffff" stroke="#f3f4f6" stroke-width="1.5"/><text x="824" y="362.2" font-family="Segoe UI,Arial,sans-serif" font-size="11" fill="#111827" font-weight="normal" text-anchor="start">Placa: ABC-123</text><rect x="816" y="381" width="298" height="30" rx="0" fill="#ffffff" stroke="#f3f4f6" stroke-width="1.5"/><text x="824" y="400.2" font-family="Segoe UI,Arial,sans-serif" font-size="11" fill="#111827" font-weight="normal" text-anchor="start">Categoria: Liviano (A)</text><rect x="816" y="419" width="298" height="30" rx="0" fill="#ffffff" stroke="#f3f4f6" stroke-width="1.5"/><text x="824" y="438.2" font-family="Segoe UI,Arial,sans-serif" font-size="11" fill="#111827" font-weight="normal" text-anchor="start">Cliente: Cliente Prueba</text><rect x="816" y="457" width="298" height="30" rx="0" fill="#ffffff" stroke="#f3f4f6" stroke-width="1.5"/><text x="824" y="476.2" font-family="Segoe UI,Arial,sans-serif" font-size="11" fill="#111827" font-weight="normal" text-anchor="start">Entrada: 27/09/2026, 5:57 p.m.</text><rect x="816" y="495" width="298" height="30" rx="0" fill="#ffffff" stroke="#f3f4f6" stroke-width="1.5"/><text x="824" y="514.2" font-family="Segoe UI,Arial,sans-serif" font-size="11" fill="#111827" font-weight="normal" text-anchor="start">Espacio: A-001</text><rect x="816" y="545" width="298" height="34" rx="8" fill="#2563eb" stroke="#2563eb" stroke-width="1.5"/><text x="965.0" y="566.5" font-family="Segoe UI,Arial,sans-serif" font-size="12" fill="#ffffff" font-weight="bold" text-anchor="middle">Aceptar</text>
</svg>
