<svg xmlns="http://www.w3.org/2000/svg" width="1160" height="780" viewBox="0 0 1160 780">
<defs><marker id="arrow" viewBox="0 0 10 10" refX="9" refY="5" markerWidth="7" markerHeight="7" orient="auto-start-reverse"><path d="M 0 0 L 10 5 L 0 10 z" fill="#374151"/></marker><marker id="arrowOpen" viewBox="0 0 10 10" refX="9" refY="5" markerWidth="8" markerHeight="8" orient="auto-start-reverse"><path d="M 0 0 L 10 5 L 0 10" fill="none" stroke="#374151" stroke-width="1.5"/></marker></defs>
<rect width="100%" height="100%" fill="#e5e7eb"/>


<rect x="20" y="20" width="1120" height="740" rx="0" fill="#ffffff" stroke="#9ca3af" stroke-width="1.5"/><text x="580.0" y="394.5" font-family="Segoe UI,Arial,sans-serif" font-size="12" fill="#111827" font-weight="normal" text-anchor="middle"></text><rect x="20" y="20" width="1120" height="46" rx="0" fill="#1f2937" stroke="#1f2937" stroke-width="1.5"/><text x="580.0" y="47.5" font-family="Segoe UI,Arial,sans-serif" font-size="12" fill="#111827" font-weight="normal" text-anchor="middle"></text><ellipse cx="41.0" cy="40.0" rx="7.0" ry="7.0" fill="#ef4444" stroke="#ef4444" stroke-width="1.5"/><text x="41.0" y="44.5" font-family="Segoe UI,Arial,sans-serif" font-size="12" fill="#111827" font-weight="normal" text-anchor="middle"></text><ellipse cx="61.0" cy="40.0" rx="7.0" ry="7.0" fill="#f59e0b" stroke="#f59e0b" stroke-width="1.5"/><text x="61.0" y="44.5" font-family="Segoe UI,Arial,sans-serif" font-size="12" fill="#111827" font-weight="normal" text-anchor="middle"></text><ellipse cx="81.0" cy="40.0" rx="7.0" ry="7.0" fill="#10b981" stroke="#10b981" stroke-width="1.5"/><text x="81.0" y="44.5" font-family="Segoe UI,Arial,sans-serif" font-size="12" fill="#111827" font-weight="normal" text-anchor="middle"></text><rect x="120" y="26" width="860" height="34" rx="0" fill="#1f2937" stroke="#1f2937" stroke-width="1.5"/><text x="550.0" y="47.8" font-family="Segoe UI,Arial,sans-serif" font-size="13" fill="#ffffff" font-weight="bold" text-anchor="middle">Operador - Registrar salida y pago</text><rect x="20" y="66" width="210" height="694" rx="0" fill="#111827" stroke="#111827" stroke-width="1.5"/><text x="125.0" y="417.5" font-family="Segoe UI,Arial,sans-serif" font-size="12" fill="#111827" font-weight="normal" text-anchor="middle"></text><rect x="36" y="84" width="178" height="40" rx="0" fill="#111827" stroke="#111827" stroke-width="1.5"/><text x="44" y="101.0" font-family="Segoe UI,Arial,sans-serif" font-size="12" fill="#ffffff" font-weight="bold" text-anchor="start">Parqueadero</text><text x="44" y="116.0" font-family="Segoe UI,Arial,sans-serif" font-size="12" fill="#ffffff" font-weight="bold" text-anchor="start">Neiva, Colombia</text><rect x="32" y="150" width="186" height="34" rx="8" fill="#111827" stroke="#111827" stroke-width="1.5"/><text x="40" y="171.2" font-family="Segoe UI,Arial,sans-serif" font-size="11" fill="#cbd5e1" font-weight="normal" text-anchor="start">Entrada</text><rect x="32" y="194" width="186" height="34" rx="8" fill="#2563eb" stroke="#2563eb" stroke-width="1.5"/><text x="40" y="215.2" font-family="Segoe UI,Arial,sans-serif" font-size="11" fill="#ffffff" font-weight="normal" text-anchor="start">Salida</text><rect x="32" y="238" width="186" height="34" rx="8" fill="#111827" stroke="#111827" stroke-width="1.5"/><text x="40" y="259.2" font-family="Segoe UI,Arial,sans-serif" font-size="11" fill="#cbd5e1" font-weight="normal" text-anchor="start">Activos</text><rect x="230" y="66" width="910" height="50" rx="0" fill="#ffffff" stroke="#e5e7eb" stroke-width="1.5"/><text x="238" y="95.5" font-family="Segoe UI,Arial,sans-serif" font-size="12" fill="#111827" font-weight="normal" text-anchor="start">Sistema de gestion de parqueadero</text><rect x="950" y="76" width="170" height="30" rx="8" fill="#e0e7ff" stroke="#c7d2fe" stroke-width="1.5"/><text x="1035.0" y="95.2" font-family="Segoe UI,Arial,sans-serif" font-size="11" fill="#111827" font-weight="normal" text-anchor="middle">Operador</text><rect x="250" y="136" width="880" height="614" rx="0" fill="#f9fafb" stroke="#e5e7eb" stroke-width="1.5"/><text x="690.0" y="447.5" font-family="Segoe UI,Arial,sans-serif" font-size="12" fill="#111827" font-weight="normal" text-anchor="middle"></text><rect x="270" y="155" width="700" height="34" rx="0" fill="#f9fafb" stroke="#f9fafb" stroke-width="1.5"/><text x="278" y="177.4" font-family="Segoe UI,Arial,sans-serif" font-size="15" fill="#111827" font-weight="bold" text-anchor="start">Registrar Salida</text><rect x="270" y="187" width="700" height="24" rx="0" fill="#f9fafb" stroke="#f9fafb" stroke-width="1.5"/><text x="278" y="203.2" font-family="Segoe UI,Arial,sans-serif" font-size="11" fill="#6b7280" font-weight="normal" text-anchor="start">Busque el vehiculo y procese el pago</text><rect x="270" y="220" width="420" height="100" rx="8" fill="#ffffff" stroke="#e5e7eb" stroke-width="1.5"/><text x="480.0" y="274.5" font-family="Segoe UI,Arial,sans-serif" font-size="12" fill="#111827" font-weight="normal" text-anchor="middle"></text><rect x="284" y="230" width="392" height="22" rx="0" fill="#ffffff" stroke="#ffffff" stroke-width="1.5"/><text x="292" y="245.5" font-family="Segoe UI,Arial,sans-serif" font-size="12" fill="#111827" font-weight="bold" text-anchor="start">Buscar vehiculo</text><rect x="290" y="255" width="280" height="34" rx="8" fill="#ffffff" stroke="#9ca3af" stroke-width="1.5"/><text x="298" y="276.2" font-family="Segoe UI,Arial,sans-serif" font-size="11" fill="#111827" font-weight="normal" text-anchor="start">ABC-123</text><rect x="580" y="255" width="90" height="34" rx="8" fill="#2563eb" stroke="#2563eb" stroke-width="1.5"/><text x="625.0" y="276.5" font-family="Segoe UI,Arial,sans-serif" font-size="12" fill="#ffffff" font-weight="bold" text-anchor="middle">Buscar</text><rect x="270" y="340" width="420" height="230" rx="8" fill="#ffffff" stroke="#e5e7eb" stroke-width="1.5"/><text x="480.0" y="459.5" font-family="Segoe UI,Arial,sans-serif" font-size="12" fill="#111827" font-weight="normal" text-anchor="middle"></text><rect x="284" y="350" width="392" height="22" rx="0" fill="#ffffff" stroke="#ffffff" stroke-width="1.5"/><text x="292" y="365.5" font-family="Segoe UI,Arial,sans-serif" font-size="12" fill="#111827" font-weight="bold" text-anchor="start">Datos del vehiculo</text><rect x="286" y="380" width="388" height="22" rx="0" fill="#ffffff" stroke="#f3f4f6" stroke-width="1.5"/><text x="294" y="394.9" font-family="Segoe UI,Arial,sans-serif" font-size="10" fill="#111827" font-weight="normal" text-anchor="start">Placa: ABC-123</text><rect x="286" y="408" width="388" height="22" rx="0" fill="#ffffff" stroke="#f3f4f6" stroke-width="1.5"/><text x="294" y="422.9" font-family="Segoe UI,Arial,sans-serif" font-size="10" fill="#111827" font-weight="normal" text-anchor="start">Categoria: Liviano (A)</text><rect x="286" y="436" width="388" height="22" rx="0" fill="#ffffff" stroke="#f3f4f6" stroke-width="1.5"/><text x="294" y="450.9" font-family="Segoe UI,Arial,sans-serif" font-size="10" fill="#111827" font-weight="normal" text-anchor="start">Entrada: 27/09/2026, 4:03 p.m.</text><rect x="286" y="464" width="388" height="22" rx="0" fill="#ffffff" stroke="#f3f4f6" stroke-width="1.5"/><text x="294" y="478.9" font-family="Segoe UI,Arial,sans-serif" font-size="10" fill="#111827" font-weight="normal" text-anchor="start">Duracion: 2h 0min</text><rect x="286" y="492" width="388" height="22" rx="0" fill="#ffffff" stroke="#f3f4f6" stroke-width="1.5"/><text x="294" y="506.9" font-family="Segoe UI,Arial,sans-serif" font-size="10" fill="#111827" font-weight="normal" text-anchor="start">Cliente: Cliente Prueba</text><rect x="286" y="520" width="388" height="22" rx="0" fill="#ffffff" stroke="#f3f4f6" stroke-width="1.5"/><text x="294" y="534.9" font-family="Segoe UI,Arial,sans-serif" font-size="10" fill="#111827" font-weight="normal" text-anchor="start">Espacio: A-001</text><rect x="710" y="220" width="420" height="430" rx="8" fill="#ffffff" stroke="#e5e7eb" stroke-width="1.5"/><text x="920.0" y="439.5" font-family="Segoe UI,Arial,sans-serif" font-size="12" fill="#111827" font-weight="normal" text-anchor="middle"></text><rect x="724" y="230" width="392" height="22" rx="0" fill="#ffffff" stroke="#ffffff" stroke-width="1.5"/><text x="732" y="245.5" font-family="Segoe UI,Arial,sans-serif" font-size="12" fill="#111827" font-weight="bold" text-anchor="start">Pago</text><rect x="726" y="260" width="388" height="50" rx="8" fill="#eff6ff" stroke="#bfdbfe" stroke-width="1.5"/><text x="920.0" y="290.1" font-family="Segoe UI,Arial,sans-serif" font-size="14" fill="#111827" font-weight="bold" text-anchor="middle">Total a pagar: $ 10.000</text><rect x="726" y="322" width="388" height="24" rx="0" fill="#ffffff" stroke="#ffffff" stroke-width="1.5"/><text x="734" y="338.2" font-family="Segoe UI,Arial,sans-serif" font-size="11" fill="#111827" font-weight="bold" text-anchor="start">Metodo de pago</text><rect x="726" y="350" width="190" height="36" rx="8" fill="#eff6ff" stroke="#2563eb" stroke-width="1.5"/><text x="821.0" y="371.9" font-family="Segoe UI,Arial,sans-serif" font-size="10" fill="#111827" font-weight="normal" text-anchor="middle">Efectivo</text><rect x="924" y="350" width="190" height="36" rx="8" fill="#ffffff" stroke="#9ca3af" stroke-width="1.5"/><text x="1019.0" y="371.9" font-family="Segoe UI,Arial,sans-serif" font-size="10" fill="#111827" font-weight="normal" text-anchor="middle">Tarjeta credito</text><rect x="726" y="392" width="190" height="36" rx="8" fill="#ffffff" stroke="#9ca3af" stroke-width="1.5"/><text x="821.0" y="413.9" font-family="Segoe UI,Arial,sans-serif" font-size="10" fill="#111827" font-weight="normal" text-anchor="middle">Tarjeta debito</text><rect x="924" y="392" width="190" height="36" rx="8" fill="#ffffff" stroke="#9ca3af" stroke-width="1.5"/><text x="1019.0" y="413.9" font-family="Segoe UI,Arial,sans-serif" font-size="10" fill="#111827" font-weight="normal" text-anchor="middle">Transferencia</text><rect x="726" y="434" width="190" height="36" rx="8" fill="#ffffff" stroke="#9ca3af" stroke-width="1.5"/><text x="821.0" y="455.9" font-family="Segoe UI,Arial,sans-serif" font-size="10" fill="#111827" font-weight="normal" text-anchor="middle">Billetera digital</text><rect x="726" y="485" width="388" height="18" rx="0" fill="#ffffff" stroke="#ffffff" stroke-width="1.5"/><text x="734" y="498.2" font-family="Segoe UI,Arial,sans-serif" font-size="11" fill="#374151" font-weight="normal" text-anchor="start">Monto recibido</text><rect x="726" y="503" width="388" height="34" rx="8" fill="#ffffff" stroke="#9ca3af" stroke-width="1.5"/><text x="920.0" y="524.2" font-family="Segoe UI,Arial,sans-serif" font-size="11" fill="#9ca3af" font-weight="normal" text-anchor="middle">20.000</text><rect x="726" y="540" width="388" height="26" rx="8" fill="#ecfdf5" stroke="#a7f3d0" stroke-width="1.5"/><text x="920.0" y="557.2" font-family="Segoe UI,Arial,sans-serif" font-size="11" fill="#111827" font-weight="normal" text-anchor="middle">Cambio: $ 10.000</text><rect x="726" y="585" width="388" height="40" rx="8" fill="#2563eb" stroke="#2563eb" stroke-width="1.5"/><text x="920.0" y="609.5" font-family="Segoe UI,Arial,sans-serif" font-size="12" fill="#ffffff" font-weight="bold" text-anchor="middle">Pagar $ 10.000</text>
</svg>
