<svg xmlns="http://www.w3.org/2000/svg" width="1160" height="780" viewBox="0 0 1160 780">
<defs><marker id="arrow" viewBox="0 0 10 10" refX="9" refY="5" markerWidth="7" markerHeight="7" orient="auto-start-reverse"><path d="M 0 0 L 10 5 L 0 10 z" fill="#374151"/></marker><marker id="arrowOpen" viewBox="0 0 10 10" refX="9" refY="5" markerWidth="8" markerHeight="8" orient="auto-start-reverse"><path d="M 0 0 L 10 5 L 0 10" fill="none" stroke="#374151" stroke-width="1.5"/></marker></defs>
<rect width="100%" height="100%" fill="#e5e7eb"/>


<rect x="20" y="20" width="1120" height="740" rx="0" fill="#ffffff" stroke="#9ca3af" stroke-width="1.5"/><text x="580.0" y="394.5" font-family="Segoe UI,Arial,sans-serif" font-size="12" fill="#111827" font-weight="normal" text-anchor="middle"></text><rect x="20" y="20" width="1120" height="46" rx="0" fill="#1f2937" stroke="#1f2937" stroke-width="1.5"/><text x="580.0" y="47.5" font-family="Segoe UI,Arial,sans-serif" font-size="12" fill="#111827" font-weight="normal" text-anchor="middle"></text><ellipse cx="41.0" cy="40.0" rx="7.0" ry="7.0" fill="#ef4444" stroke="#ef4444" stroke-width="1.5"/><text x="41.0" y="44.5" font-family="Segoe UI,Arial,sans-serif" font-size="12" fill="#111827" font-weight="normal" text-anchor="middle"></text><ellipse cx="61.0" cy="40.0" rx="7.0" ry="7.0" fill="#f59e0b" stroke="#f59e0b" stroke-width="1.5"/><text x="61.0" y="44.5" font-family="Segoe UI,Arial,sans-serif" font-size="12" fill="#111827" font-weight="normal" text-anchor="middle"></text><ellipse cx="81.0" cy="40.0" rx="7.0" ry="7.0" fill="#10b981" stroke="#10b981" stroke-width="1.5"/><text x="81.0" y="44.5" font-family="Segoe UI,Arial,sans-serif" font-size="12" fill="#111827" font-weight="normal" text-anchor="middle"></text><rect x="120" y="26" width="860" height="34" rx="0" fill="#1f2937" stroke="#1f2937" stroke-width="1.5"/><text x="550.0" y="47.8" font-family="Segoe UI,Arial,sans-serif" font-size="13" fill="#ffffff" font-weight="bold" text-anchor="middle">Admin - Reclamos</text><rect x="20" y="66" width="210" height="694" rx="0" fill="#111827" stroke="#111827" stroke-width="1.5"/><text x="125.0" y="417.5" font-family="Segoe UI,Arial,sans-serif" font-size="12" fill="#111827" font-weight="normal" text-anchor="middle"></text><rect x="36" y="84" width="178" height="40" rx="0" fill="#111827" stroke="#111827" stroke-width="1.5"/><text x="44" y="101.0" font-family="Segoe UI,Arial,sans-serif" font-size="12" fill="#ffffff" font-weight="bold" text-anchor="start">Parqueadero</text><text x="44" y="116.0" font-family="Segoe UI,Arial,sans-serif" font-size="12" fill="#ffffff" font-weight="bold" text-anchor="start">Neiva, Colombia</text><rect x="32" y="150" width="186" height="34" rx="8" fill="#111827" stroke="#111827" stroke-width="1.5"/><text x="40" y="171.2" font-family="Segoe UI,Arial,sans-serif" font-size="11" fill="#cbd5e1" font-weight="normal" text-anchor="start">Dashboard</text><rect x="32" y="194" width="186" height="34" rx="8" fill="#111827" stroke="#111827" stroke-width="1.5"/><text x="40" y="215.2" font-family="Segoe UI,Arial,sans-serif" font-size="11" fill="#cbd5e1" font-weight="normal" text-anchor="start">Tarifas</text><rect x="32" y="238" width="186" height="34" rx="8" fill="#111827" stroke="#111827" stroke-width="1.5"/><text x="40" y="259.2" font-family="Segoe UI,Arial,sans-serif" font-size="11" fill="#cbd5e1" font-weight="normal" text-anchor="start">Reportes</text><rect x="32" y="282" width="186" height="34" rx="8" fill="#2563eb" stroke="#2563eb" stroke-width="1.5"/><text x="40" y="303.2" font-family="Segoe UI,Arial,sans-serif" font-size="11" fill="#ffffff" font-weight="normal" text-anchor="start">Reclamos</text><rect x="32" y="326" width="186" height="34" rx="8" fill="#111827" stroke="#111827" stroke-width="1.5"/><text x="40" y="347.2" font-family="Segoe UI,Arial,sans-serif" font-size="11" fill="#cbd5e1" font-weight="normal" text-anchor="start">Legal</text><rect x="32" y="370" width="186" height="34" rx="8" fill="#111827" stroke="#111827" stroke-width="1.5"/><text x="40" y="391.2" font-family="Segoe UI,Arial,sans-serif" font-size="11" fill="#cbd5e1" font-weight="normal" text-anchor="start">Espacios</text><rect x="32" y="414" width="186" height="34" rx="8" fill="#111827" stroke="#111827" stroke-width="1.5"/><text x="40" y="435.2" font-family="Segoe UI,Arial,sans-serif" font-size="11" fill="#cbd5e1" font-weight="normal" text-anchor="start">Usuarios</text><rect x="32" y="458" width="186" height="34" rx="8" fill="#111827" stroke="#111827" stroke-width="1.5"/><text x="40" y="479.2" font-family="Segoe UI,Arial,sans-serif" font-size="11" fill="#cbd5e1" font-weight="normal" text-anchor="start">Entrada/Salida</text><rect x="32" y="502" width="186" height="34" rx="8" fill="#111827" stroke="#111827" stroke-width="1.5"/><text x="40" y="523.2" font-family="Segoe UI,Arial,sans-serif" font-size="11" fill="#cbd5e1" font-weight="normal" text-anchor="start">Entrada</text><rect x="32" y="546" width="186" height="34" rx="8" fill="#111827" stroke="#111827" stroke-width="1.5"/><text x="40" y="567.2" font-family="Segoe UI,Arial,sans-serif" font-size="11" fill="#cbd5e1" font-weight="normal" text-anchor="start">Salida</text><rect x="32" y="590" width="186" height="34" rx="8" fill="#111827" stroke="#111827" stroke-width="1.5"/><text x="40" y="611.2" font-family="Segoe UI,Arial,sans-serif" font-size="11" fill="#cbd5e1" font-weight="normal" text-anchor="start">Activos</text><rect x="230" y="66" width="910" height="50" rx="0" fill="#ffffff" stroke="#e5e7eb" stroke-width="1.5"/><text x="238" y="95.5" font-family="Segoe UI,Arial,sans-serif" font-size="12" fill="#111827" font-weight="normal" text-anchor="start">Bienvenido, Administrador del Sistema</text><rect x="950" y="76" width="170" height="30" rx="8" fill="#e0e7ff" stroke="#c7d2fe" stroke-width="1.5"/><text x="1035.0" y="95.2" font-family="Segoe UI,Arial,sans-serif" font-size="11" fill="#111827" font-weight="normal" text-anchor="middle">Administrador</text><rect x="250" y="136" width="880" height="614" rx="0" fill="#f9fafb" stroke="#e5e7eb" stroke-width="1.5"/><text x="690.0" y="447.5" font-family="Segoe UI,Arial,sans-serif" font-size="12" fill="#111827" font-weight="normal" text-anchor="middle"></text><rect x="270" y="155" width="700" height="34" rx="0" fill="#f9fafb" stroke="#f9fafb" stroke-width="1.5"/><text x="278" y="177.4" font-family="Segoe UI,Arial,sans-serif" font-size="15" fill="#111827" font-weight="bold" text-anchor="start">Gestion de Reclamos</text><rect x="270" y="187" width="700" height="24" rx="0" fill="#f9fafb" stroke="#f9fafb" stroke-width="1.5"/><text x="278" y="203.2" font-family="Segoe UI,Arial,sans-serif" font-size="11" fill="#6b7280" font-weight="normal" text-anchor="start">Administre reclamos, quejas y compensaciones</text><rect x="270" y="220" width="180" height="32" rx="8" fill="#ffffff" stroke="#9ca3af" stroke-width="1.5"/><text x="278" y="240.2" font-family="Segoe UI,Arial,sans-serif" font-size="11" fill="#111827" font-weight="normal" text-anchor="start">Todos los estados</text><rect x="465" y="220" width="180" height="32" rx="8" fill="#ffffff" stroke="#9ca3af" stroke-width="1.5"/><text x="473" y="240.2" font-family="Segoe UI,Arial,sans-serif" font-size="11" fill="#111827" font-weight="normal" text-anchor="start">Todas las categorias</text><rect x="270" y="280" width="870" height="120" rx="8" fill="#ffffff" stroke="#e5e7eb" stroke-width="1.5"/><text x="705.0" y="344.5" font-family="Segoe UI,Arial,sans-serif" font-size="12" fill="#111827" font-weight="normal" text-anchor="middle"></text><rect x="290" y="300" width="300" height="26" rx="0" fill="#ffffff" stroke="#ffffff" stroke-width="1.5"/><text x="298" y="310.0" font-family="Segoe UI,Arial,sans-serif" font-size="12" fill="#111827" font-weight="bold" text-anchor="start">CLM-20260927-00001 Cobro Incorrecto</text><text x="298" y="325.0" font-family="Segoe UI,Arial,sans-serif" font-size="12" fill="#111827" font-weight="bold" text-anchor="start">Abierto</text><rect x="290" y="330" width="820" height="22" rx="0" fill="#ffffff" stroke="#ffffff" stroke-width="1.5"/><text x="298" y="344.9" font-family="Segoe UI,Arial,sans-serif" font-size="10" fill="#6b7280" font-weight="normal" text-anchor="start">Reclamo de prueba por cobro incorrecto - 27/09/2026</text><rect x="270" y="420" width="870" height="250" rx="8" fill="#ffffff" stroke="#e5e7eb" stroke-width="1.5"/><text x="705.0" y="549.5" font-family="Segoe UI,Arial,sans-serif" font-size="12" fill="#111827" font-weight="normal" text-anchor="middle"></text><rect x="290" y="440" width="300" height="24" rx="0" fill="#ffffff" stroke="#ffffff" stroke-width="1.5"/><text x="298" y="456.5" font-family="Segoe UI,Arial,sans-serif" font-size="12" fill="#111827" font-weight="bold" text-anchor="start">Notas (1)</text><rect x="290" y="470" width="820" height="40" rx="8" fill="#f3f4f6" stroke="#e5e7eb" stroke-width="1.5"/><text x="298" y="493.9" font-family="Segoe UI,Arial,sans-serif" font-size="10" fill="#111827" font-weight="normal" text-anchor="start">Sistema - 27/09/2026 6:15 p.m. Nota E2E de seguimiento</text><rect x="290" y="525" width="560" height="18" rx="0" fill="#ffffff" stroke="#ffffff" stroke-width="1.5"/><text x="298" y="538.2" font-family="Segoe UI,Arial,sans-serif" font-size="11" fill="#374151" font-weight="normal" text-anchor="start">Agregar nota...</text><rect x="290" y="543" width="560" height="34" rx="8" fill="#ffffff" stroke="#9ca3af" stroke-width="1.5"/><text x="570.0" y="564.2" font-family="Segoe UI,Arial,sans-serif" font-size="11" fill="#9ca3af" font-weight="normal" text-anchor="middle">Escriba una nota</text><rect x="865" y="543" width="80" height="34" rx="8" fill="#2563eb" stroke="#2563eb" stroke-width="1.5"/><text x="905.0" y="564.5" font-family="Segoe UI,Arial,sans-serif" font-size="12" fill="#ffffff" font-weight="bold" text-anchor="middle">Agregar</text><rect x="290" y="590" width="260" height="24" rx="0" fill="#ffffff" stroke="#ffffff" stroke-width="1.5"/><text x="298" y="606.5" font-family="Segoe UI,Arial,sans-serif" font-size="12" fill="#111827" font-weight="bold" text-anchor="start">Resolver Reclamo</text><rect x="290" y="615" width="560" height="18" rx="0" fill="#ffffff" stroke="#ffffff" stroke-width="1.5"/><text x="298" y="628.2" font-family="Segoe UI,Arial,sans-serif" font-size="11" fill="#374151" font-weight="normal" text-anchor="start">Resolucion</text><rect x="290" y="633" width="560" height="34" rx="8" fill="#ffffff" stroke="#9ca3af" stroke-width="1.5"/><text x="570.0" y="654.2" font-family="Segoe UI,Arial,sans-serif" font-size="11" fill="#9ca3af" font-weight="normal" text-anchor="middle">Describa la resolucion</text><rect x="865" y="633" width="200" height="34" rx="8" fill="#2563eb" stroke="#2563eb" stroke-width="1.5"/><text x="965.0" y="654.5" font-family="Segoe UI,Arial,sans-serif" font-size="12" fill="#ffffff" font-weight="bold" text-anchor="middle">Resolver Reclamo</text>
</svg>
